# xmcd
#
# Track frame offsets:
#	225
#	13354
#	25545
#	36975
#	45408
#	57885
#	69486
#	80730
#	92423
#	102106
#	112727
#	123213
#	134595
#	145933
#	155925
#	166603
#	178133
#	186968
#	199541
#	211928
#
# Disc length: 2974 seconds
#
# Revision: 1
# Processed by: cddbd v1.5.2PL0 Copyright (c) Steve Scherf et al.
# Submitted via: audiograbber 1.83.01
#
DISCID=0f0b9b14
DTITLE=Various Artist - Girl Crazy
DYEAR=2006
DGENRE=Soul
TTITLE0=Gigi and The Charmaines - Girl Crazy
TTITLE1=Marlina Mars -  Head and Shoulders
TTITLE2=The Adorables - Ooh Boy
TTITLE3=The Miller Sisters - Your Love
TTITLE4=Brenda and The Sentries - Don't Make Me Lie
TTITLE5=The Fantaisions - G.I. Joe, We Love You
TTITLE6=The Puffs - I Only Cry Once A Day Now
TTITLE7=Gerri Thomas - Look What I Got
TTITLE8=Vicki Hill - Give Him Up
TTITLE9=The Teri Nelson Group - Sweet Talkin' Willie
TTITLE10=The Kelly Sisters - Some Girls Will Do Anything
TTITLE11=Marlene and The Debanettes - Bad Love
TTITLE12=Yvonne Baker and The Sensations - It's Good Enough For Me
TTITLE13=Linda Carr - In My Life
TTITLE14=Barbara and The Castles - Stoney Face
TTITLE15=The Toys - What's Wrong With Me, Baby
TTITLE16=The Kane Triplets - Spanish Boy
TTITLE17=Chris Calloway - You're Something Else
TTITLE18=The Third Tuesday - Third Time Under
TTITLE19=Kris Peterson - Just As Much
EXTD=
EXTT0=
EXTT1=
EXTT2=
EXTT3=
EXTT4=
EXTT5=
EXTT6=
EXTT7=
EXTT8=
EXTT9=
EXTT10=
EXTT11=
EXTT12=
EXTT13=
EXTT14=
EXTT15=
EXTT16=
EXTT17=
EXTT18=
EXTT19=
PLAYORDER=
